<svg version="1.1" xmlns="http://www.w3.org/2000/svg" width="48" height="48" viewBox="0 0 48 48">
<path d="M30 38c-2.684 0-5.37-1.022-7.414-3.064-2.532-2.53-6.646-2.528-9.172 0-0.782 0.782-2.046 0.782-2.828 0s-0.782-2.046 0-2.828c4.086-4.086 10.738-4.086 14.828 0 2.53 2.528 6.644 2.526 9.172 0 0.782-0.782 2.046-0.782 2.828 0s0.782 2.046 0 2.828c-2.042 2.042-4.728 3.064-7.414 3.064z"></path>
<path d="M30 30c-2.684 0-5.37-1.022-7.414-3.064-2.532-2.53-6.646-2.528-9.172 0-0.782 0.782-2.046 0.782-2.828 0s-0.782-2.046 0-2.828c4.086-4.086 10.738-4.086 14.828 0 2.53 2.528 6.644 2.526 9.172 0 0.782-0.782 2.046-0.782 2.828 0s0.782 2.046 0 2.828c-2.042 2.042-4.728 3.064-7.414 3.064z"></path>
<path d="M30 22c-2.684 0-5.37-1.022-7.414-3.064-2.532-2.53-6.646-2.528-9.172 0-0.782 0.782-2.046 0.782-2.828 0s-0.782-2.046 0-2.828c4.086-4.084 10.738-4.088 14.828 0 2.53 2.528 6.644 2.526 9.172 0 0.782-0.782 2.046-0.782 2.828 0s0.782 2.046 0 2.828c-2.042 2.042-4.728 3.064-7.414 3.064z"></path>
</svg>
